<svg width="39" height="47" viewBox="0 0 39 47" fill="none" xmlns="http://www.w3.org/2000/svg">
<path d="M0.522727 47V0.454544H19.75C23.2348 0.454544 26.2424 1.08333 28.7727 2.34091C31.3182 3.58333 33.2803 5.37121 34.6591 7.70454C36.0379 10.0227 36.7273 12.7727 36.7273 15.9545C36.7273 19.1818 36.0227 21.9242 34.6136 24.1818C33.2045 26.4242 31.2045 28.1364 28.6136 29.3182C26.0227 30.4848 22.9545 31.0682 19.4091 31.0682H7.25V22.2045H17.3182C19.0152 22.2045 20.4318 21.9848 21.5682 21.5455C22.7197 21.0909 23.5909 20.4091 24.1818 19.5C24.7727 18.5758 25.0682 17.3939 25.0682 15.9545C25.0682 14.5151 24.7727 13.3258 24.1818 12.3864C23.5909 11.4318 22.7197 10.7197 21.5682 10.25C20.4167 9.76515 19 9.52273 17.3182 9.52273H11.7727V47H0.522727ZM26.7273 25.7273L38.3182 47H26.0455L14.6818 25.7273H26.7273Z" fill="white"/>
</svg>
